<svg xmlns="http://www.w3.org/2000/svg" fill="currentColor" fill-rule="evenodd" viewBox="0 0 420.7 75.201">
  <g id="svgGroup" stroke-linecap="round" stroke="#000" stroke-width="3" fill="#000"><path d="M 130.4 74 L 121.4 74 L 121.4 22 L 130.1 22 L 130.1 30.7 Q 132.9 26.5 137.2 23.65 A 17.205 17.205 0 0 1 146.402 20.809 A 20.858 20.858 0 0 1 147 20.8 A 20.994 20.994 0 0 1 151.417 21.24 Q 154.403 21.882 156.685 23.463 A 13.128 13.128 0 0 1 157.15 23.8 A 15.751 15.751 0 0 1 162.598 31.489 A 19.154 19.154 0 0 1 162.7 31.8 Q 165.8 27.2 170.05 24 A 15.669 15.669 0 0 1 176.841 21.116 A 21.446 21.446 0 0 1 180.6 20.8 A 21.437 21.437 0 0 1 185.488 21.322 Q 189.074 22.162 191.563 24.351 A 12.994 12.994 0 0 1 193.25 26.15 A 18.992 18.992 0 0 1 196.661 33.422 Q 197.4 36.472 197.4 40.1 L 197.4 74 L 188.4 74 L 188.4 40.8 A 19.042 19.042 0 0 0 188.063 37.111 Q 187.627 34.905 186.628 33.161 A 10.982 10.982 0 0 0 185.9 32.05 A 7.974 7.974 0 0 0 180.087 28.754 A 10.678 10.678 0 0 0 179 28.7 A 11.926 11.926 0 0 0 172.241 30.827 A 15.996 15.996 0 0 0 170.65 32.05 Q 166.8 35.4 163.9 39.9 L 163.9 74 L 154.9 74 L 154.9 40.8 A 19.042 19.042 0 0 0 154.563 37.111 Q 154.127 34.905 153.128 33.161 A 10.982 10.982 0 0 0 152.4 32.05 A 7.974 7.974 0 0 0 146.587 28.754 A 10.678 10.678 0 0 0 145.5 28.7 A 12.02 12.02 0 0 0 139.181 30.528 A 16.244 16.244 0 0 0 137.2 31.95 Q 133.3 35.2 130.4 39.6 L 130.4 74 Z M 0 68.1 L 4.8 60.1 Q 8.4 63.1 12.9 65 A 23.348 23.348 0 0 0 18.27 66.51 A 32.118 32.118 0 0 0 23.4 66.9 A 27.981 27.981 0 0 0 27.947 66.554 Q 30.37 66.154 32.331 65.293 A 13.701 13.701 0 0 0 34.8 63.9 Q 38.848 61.008 38.995 56.166 A 12.116 12.116 0 0 0 39 55.8 A 11.94 11.94 0 0 0 38.663 52.907 A 9.816 9.816 0 0 0 37.8 50.65 A 8.097 8.097 0 0 0 36.6 48.994 Q 35.33 47.613 33.184 46.271 A 25.81 25.81 0 0 0 33.15 46.25 Q 30.034 44.308 24.265 42.08 A 118.584 118.584 0 0 0 23 41.6 Q 15.8 38.8 11.5 35.95 A 21.931 21.931 0 0 1 8.411 33.502 Q 6.694 31.853 5.638 29.987 A 13.303 13.303 0 0 1 5.35 29.45 Q 3.5 25.8 3.5 20.8 Q 3.5 15.8 6.25 11.75 Q 9 7.7 14.35 5.25 A 25.558 25.558 0 0 1 20.25 3.415 Q 23.493 2.8 27.3 2.8 Q 33.5 2.8 38.45 4.05 Q 43.4 5.3 48.1 7.6 L 44.6 15.7 A 31.496 31.496 0 0 0 40.474 13.681 A 41.686 41.686 0 0 0 36.65 12.35 Q 32.1 11 27.1 11 A 27.187 27.187 0 0 0 23.07 11.28 Q 20.938 11.6 19.2 12.287 A 12.616 12.616 0 0 0 16.7 13.6 A 9.902 9.902 0 0 0 14.537 15.565 A 7.359 7.359 0 0 0 12.9 20.3 A 10.464 10.464 0 0 0 13.192 22.822 A 8.562 8.562 0 0 0 14 24.9 Q 15.056 26.819 18.091 28.647 A 23.503 23.503 0 0 0 18.35 28.8 A 33.003 33.003 0 0 0 20.566 29.972 Q 22.835 31.075 26.046 32.323 A 130.016 130.016 0 0 0 28.1 33.1 A 81.228 81.228 0 0 1 33.078 35.129 Q 37.464 37.1 40.45 39.2 A 26.044 26.044 0 0 1 43.49 41.677 Q 45.713 43.806 46.9 46.15 A 17.579 17.579 0 0 1 48.641 52.013 A 22.155 22.155 0 0 1 48.8 54.7 A 21.71 21.71 0 0 1 48.133 60.201 A 17.105 17.105 0 0 1 45.55 65.8 Q 42.3 70.4 36.55 72.8 A 30.521 30.521 0 0 1 29.14 74.804 A 40.027 40.027 0 0 1 23.4 75.2 Q 16.1 75.2 10.1 73.25 A 38.206 38.206 0 0 1 4.733 71.068 A 28.433 28.433 0 0 1 0 68.1 Z M 333.8 74 L 324.8 74 L 324.8 22 L 333.5 22 L 333.5 30.7 Q 336.3 26.5 340.65 23.65 A 17.316 17.316 0 0 1 347.756 21.025 A 22.629 22.629 0 0 1 351 20.8 A 23.225 23.225 0 0 1 356.065 21.318 Q 361.159 22.456 364.15 26.1 Q 368.275 31.126 368.488 39.209 A 33.764 33.764 0 0 1 368.5 40.1 L 368.5 74 L 359.5 74 L 359.5 41.1 A 19.265 19.265 0 0 0 359.158 37.359 Q 358.719 35.145 357.719 33.397 A 10.966 10.966 0 0 0 356.85 32.1 A 8.579 8.579 0 0 0 350.573 28.747 A 12.061 12.061 0 0 0 349.5 28.7 A 13.122 13.122 0 0 0 342.651 30.664 A 17.353 17.353 0 0 0 340.8 31.95 Q 336.7 35.2 333.8 39.6 L 333.8 74 Z M 255 51.7 L 218.6 51.7 A 24.088 24.088 0 0 0 219.739 56.725 Q 221.075 60.538 223.7 63.1 Q 227.9 67.2 234.8 67.2 Q 239.3 67.2 242.9 66.25 Q 246.5 65.3 249.8 63.8 L 251.9 71.5 A 40.77 40.77 0 0 1 247.565 73.126 A 51.863 51.863 0 0 1 243.8 74.15 A 38.914 38.914 0 0 1 238.708 74.969 A 52.025 52.025 0 0 1 233.7 75.2 A 28.318 28.318 0 0 1 225.954 74.195 A 21.108 21.108 0 0 1 215.95 68.05 A 23.521 23.521 0 0 1 210.745 58.51 Q 209.4 53.845 209.4 48 A 35.359 35.359 0 0 1 210.233 40.178 A 28.84 28.84 0 0 1 212.35 34.05 A 24.642 24.642 0 0 1 217.366 26.968 A 22.887 22.887 0 0 1 220.6 24.35 A 21.048 21.048 0 0 1 230.859 20.878 A 26.205 26.205 0 0 1 232.9 20.8 Q 240.4 20.8 245.35 24.05 Q 250.3 27.3 252.8 32.8 A 28.185 28.185 0 0 1 255.226 42.664 A 33.434 33.434 0 0 1 255.3 44.9 A 75.204 75.204 0 0 1 255.009 51.597 A 69.426 69.426 0 0 1 255 51.7 Z M 419.9 23.9 L 417.2 31.5 A 30.422 30.422 0 0 0 414.296 30.224 A 23.42 23.42 0 0 0 411.85 29.45 A 20.543 20.543 0 0 0 408.807 28.924 A 26.355 26.355 0 0 0 406.2 28.8 A 15.889 15.889 0 0 0 398.947 30.443 A 16.132 16.132 0 0 0 394.45 33.85 Q 389.7 38.9 389.7 47.8 A 25.192 25.192 0 0 0 390.405 53.86 A 21.45 21.45 0 0 0 391.7 57.6 A 18.564 18.564 0 0 0 394.61 62.177 A 16.275 16.275 0 0 0 397.25 64.6 Q 400.8 67.2 405.6 67.2 Q 408.765 67.2 411.168 66.61 A 15.08 15.08 0 0 0 412.1 66.35 Q 414.789 65.503 417.876 63.912 A 49.095 49.095 0 0 0 417.9 63.9 L 420.7 71.5 Q 417.6 73.2 413.75 74.2 Q 409.9 75.2 405 75.2 A 26.803 26.803 0 0 1 397.961 74.31 A 22.074 22.074 0 0 1 392.05 71.75 Q 386.5 68.3 383.5 62.15 Q 380.5 56 380.5 48 Q 380.5 40.5 383.55 34.3 Q 386.6 28.1 392.3 24.45 A 23.067 23.067 0 0 1 401.968 21.029 A 29.608 29.608 0 0 1 405.7 20.8 Q 410.1 20.8 413.45 21.6 Q 416.8 22.4 419.9 23.9 Z M 61.3 57.7 L 61.3 0 L 70.3 0 L 70.3 56.8 A 20.644 20.644 0 0 0 70.488 59.688 Q 70.95 62.952 72.55 64.8 A 7.363 7.363 0 0 0 77.134 67.276 A 10.724 10.724 0 0 0 78.8 67.4 Q 80.7 67.4 82.55 66.95 A 22.192 22.192 0 0 0 84.013 66.544 Q 84.948 66.247 85.7 65.9 L 87.9 73.2 Q 86.501 73.822 84.588 74.323 A 34.978 34.978 0 0 1 83.45 74.6 A 23.816 23.816 0 0 1 80.295 75.085 A 30.514 30.514 0 0 1 77.6 75.2 A 20.862 20.862 0 0 1 72.71 74.646 A 17.544 17.544 0 0 1 69.3 73.45 A 12.683 12.683 0 0 1 63.975 68.685 A 15.856 15.856 0 0 1 63.45 67.8 Q 61.716 64.654 61.38 60.012 A 32.105 32.105 0 0 1 61.3 57.7 Z M 307.8 74 L 298.3 74 L 298.3 4 L 307.8 4 L 307.8 74 Z M 105.4 74 L 96.4 74 L 96.4 22 L 105.4 22 L 105.4 74 Z M 218.5 44.4 L 247 44.4 A 24.355 24.355 0 0 0 246.596 39.815 Q 246.1 37.231 244.996 35.207 A 12.422 12.422 0 0 0 243.2 32.7 A 12.488 12.488 0 0 0 236.239 28.924 A 18.395 18.395 0 0 0 232.7 28.6 A 13.58 13.58 0 0 0 227.588 29.535 A 12.524 12.524 0 0 0 223.1 32.65 Q 219.3 36.7 218.5 44.4 Z M 269.663 73.262 A 6.418 6.418 0 0 0 274.3 75.2 A 8.605 8.605 0 0 0 274.922 75.178 A 6.461 6.461 0 0 0 279.1 73.35 Q 281 71.5 281 68.5 A 6.225 6.225 0 0 0 280.421 65.829 A 6.955 6.955 0 0 0 278.95 63.8 Q 276.9 61.8 274.3 61.8 A 8.813 8.813 0 0 0 272.447 61.985 A 5.979 5.979 0 0 0 269.4 63.6 A 5.927 5.927 0 0 0 267.832 66.44 A 8.624 8.624 0 0 0 267.6 68.5 Q 267.6 71.2 269.6 73.2 A 8.317 8.317 0 0 0 269.663 73.262 Z M 96.537 11.288 A 5.973 5.973 0 0 0 100.9 13.1 A 8.175 8.175 0 0 0 102.396 12.969 A 5.647 5.647 0 0 0 105.5 11.35 Q 107.2 9.6 107.2 6.8 A 7.26 7.26 0 0 0 107.2 6.719 A 6.06 6.06 0 0 0 105.35 2.35 A 7.395 7.395 0 0 0 105.292 2.293 A 6.059 6.059 0 0 0 100.9 0.5 A 8.264 8.264 0 0 0 99.244 0.658 A 5.661 5.661 0 0 0 96.3 2.2 A 5.588 5.588 0 0 0 94.829 4.832 A 7.987 7.987 0 0 0 94.6 6.8 A 5.992 5.992 0 0 0 95.092 9.219 A 6.643 6.643 0 0 0 96.45 11.2 A 7.466 7.466 0 0 0 96.537 11.288 Z" vector-effect="non-scaling-stroke"/></g></svg>